<svg viewBox="0 0 24 24" fill="none" xmlns="http://www.w3.org/2000/svg">
  <rect opacity="0.12" x="2" y="3" width="20" height="18" rx="5" fill="#000" />
  <path
    d="M18 8L17 8.66667L16.4376 9.0416C14.8338 10.1108 14.0319 10.6454 13.1652 10.8531C12.3992 11.0366 11.6008 11.0366 10.8348 10.8531C9.96808 10.6454 9.16618 10.1108 7.5624 9.0416L7 8.66667L6 8M10 21H14C16.8003 21 18.2004 21 19.27 20.455C20.2108 19.9757 20.9757 19.2108 21.455 18.27C22 17.2004 22 15.8003 22 13V11C22 8.19974 22 6.79961 21.455 5.73005C20.9757 4.78924 20.2108 4.02433 19.27 3.54497C18.2004 3 16.8003 3 14 3H10C7.19974 3 5.79961 3 4.73005 3.54497C3.78924 4.02433 3.02433 4.78924 2.54497 5.73005C2 6.79961 2 8.19974 2 11V13C2 15.8003 2 17.2004 2.54497 18.27C3.02433 19.2108 3.78924 19.9757 4.73005 20.455C5.79961 21 7.19974 21 10 21Z"
    stroke="#000" stroke-width="1.5" stroke-linecap="round" />
</svg>