<svg width="119" height="18" viewBox="0 0 119 18" fill="none" xmlns="http://www.w3.org/2000/svg">
  <path
    d="M7.832 11.346C7.832 12.2407 7.722 13.0473 7.502 13.766C7.282 14.4847 6.952 15.097 6.512 15.603C6.07933 16.109 5.53667 16.4977 4.884 16.769C4.23133 17.0403 3.47233 17.176 2.607 17.176C2.211 17.176 1.82233 17.1503 1.441 17.099C1.05967 17.055 0.66 16.9817 0.242 16.879C0.264 16.5857 0.289667 16.2923 0.319 15.999C0.348333 15.7057 0.374 15.4123 0.396 15.119C0.418 14.9577 0.480333 14.8293 0.583 14.734C0.693 14.6313 0.847 14.58 1.045 14.58C1.16967 14.58 1.331 14.6057 1.529 14.657C1.73433 14.7083 1.991 14.734 2.299 14.734C2.717 14.734 3.08733 14.6753 3.41 14.558C3.73267 14.4333 4.00033 14.239 4.213 13.975C4.433 13.711 4.598 13.37 4.708 12.952C4.818 12.5267 4.873 12.0133 4.873 11.412V1.094H7.832V11.346ZM20.2183 5.714V17H18.5573C18.198 17 17.9707 16.835 17.8753 16.505L17.6883 15.603C17.2263 16.0723 16.7167 16.4537 16.1593 16.747C15.602 17.033 14.9457 17.176 14.1903 17.176C13.5743 17.176 13.028 17.0733 12.5513 16.868C12.082 16.6553 11.686 16.3583 11.3633 15.977C11.0407 15.5957 10.795 15.1447 10.6263 14.624C10.465 14.096 10.3843 13.5167 10.3843 12.886V5.714H13.1013V12.886C13.1013 13.5753 13.259 14.1107 13.5743 14.492C13.897 14.866 14.3773 15.053 15.0153 15.053C15.4847 15.053 15.9247 14.9503 16.3353 14.745C16.746 14.5323 17.1347 14.2427 17.5013 13.876V5.714H20.2183ZM29.7983 7.914C29.725 8.03133 29.648 8.11567 29.5673 8.167C29.4866 8.211 29.384 8.233 29.2593 8.233C29.1273 8.233 28.9843 8.19633 28.8303 8.123C28.6836 8.04967 28.5113 7.969 28.3133 7.881C28.1153 7.78567 27.888 7.70133 27.6313 7.628C27.382 7.55467 27.085 7.518 26.7403 7.518C26.205 7.518 25.7833 7.63167 25.4753 7.859C25.1746 8.08633 25.0243 8.38333 25.0243 8.75C25.0243 8.992 25.1013 9.19733 25.2553 9.366C25.4166 9.52733 25.6256 9.67033 25.8823 9.795C26.1463 9.91967 26.4433 10.0333 26.7733 10.136C27.1033 10.2313 27.437 10.3377 27.7743 10.455C28.119 10.5723 28.4563 10.708 28.7863 10.862C29.1163 11.0087 29.4096 11.1993 29.6663 11.434C29.9303 11.6613 30.1393 11.9363 30.2933 12.259C30.4546 12.5817 30.5353 12.9703 30.5353 13.425C30.5353 13.9677 30.4363 14.47 30.2383 14.932C30.0476 15.3867 29.7616 15.7827 29.3803 16.12C28.999 16.45 28.526 16.7103 27.9613 16.901C27.404 17.0843 26.7586 17.176 26.0253 17.176C25.6366 17.176 25.2553 17.1393 24.8813 17.066C24.5146 17 24.159 16.9047 23.8143 16.78C23.477 16.6553 23.1616 16.5087 22.8683 16.34C22.5823 16.1713 22.3293 15.988 22.1093 15.79L22.7363 14.756C22.817 14.6313 22.9123 14.536 23.0223 14.47C23.1323 14.404 23.2716 14.371 23.4403 14.371C23.609 14.371 23.7666 14.4187 23.9133 14.514C24.0673 14.6093 24.2433 14.712 24.4413 14.822C24.6393 14.932 24.8703 15.0347 25.1343 15.13C25.4056 15.2253 25.7466 15.273 26.1573 15.273C26.48 15.273 26.755 15.2363 26.9823 15.163C27.217 15.0823 27.4076 14.9797 27.5543 14.855C27.7083 14.7303 27.8183 14.5873 27.8843 14.426C27.9576 14.2573 27.9943 14.085 27.9943 13.909C27.9943 13.645 27.9136 13.4287 27.7523 13.26C27.5983 13.0913 27.3893 12.9447 27.1253 12.82C26.8686 12.6953 26.5716 12.5853 26.2343 12.49C25.9043 12.3873 25.5633 12.2773 25.2113 12.16C24.8666 12.0427 24.5256 11.907 24.1883 11.753C23.8583 11.5917 23.5613 11.39 23.2973 11.148C23.0406 10.906 22.8316 10.609 22.6703 10.257C22.5163 9.905 22.4393 9.47967 22.4393 8.981C22.4393 8.519 22.531 8.079 22.7143 7.661C22.8976 7.243 23.1653 6.88 23.5173 6.572C23.8766 6.25667 24.3203 6.00733 24.8483 5.824C25.3836 5.63333 25.9996 5.538 26.6963 5.538C27.4736 5.538 28.1813 5.66633 28.8193 5.923C29.4573 6.17967 29.989 6.517 30.4143 6.935L29.7983 7.914ZM43.9653 17H41.2483V7.749H36.0123V13.865C36.0123 14.217 36.0966 14.492 36.2653 14.69C36.4413 14.888 36.6796 14.987 36.9803 14.987C37.1489 14.987 37.2883 14.9687 37.3983 14.932C37.5156 14.888 37.6146 14.844 37.6953 14.8C37.7833 14.756 37.8603 14.7157 37.9263 14.679C37.9923 14.635 38.0583 14.613 38.1243 14.613C38.2049 14.613 38.2709 14.635 38.3223 14.679C38.3736 14.7157 38.4286 14.7743 38.4873 14.855L39.3013 16.175C38.9053 16.505 38.4506 16.7543 37.9373 16.923C37.4239 17.0917 36.8923 17.176 36.3423 17.176C35.3596 17.176 34.6043 16.901 34.0763 16.351C33.5556 15.7937 33.2953 15.0273 33.2953 14.052V7.749H32.1403C31.9936 7.749 31.8689 7.70133 31.7663 7.606C31.6636 7.51067 31.6123 7.36767 31.6123 7.177V6.099L33.4273 5.791L33.9993 2.722C34.0359 2.57533 34.1056 2.46167 34.2083 2.381C34.3109 2.30033 34.4429 2.26 34.6043 2.26H36.0123V5.813H43.9653V17ZM44.4383 2.381C44.4383 2.61567 44.3906 2.83933 44.2953 3.052C44.1999 3.25733 44.0716 3.437 43.9103 3.591C43.7563 3.745 43.5693 3.86967 43.3493 3.965C43.1366 4.053 42.9093 4.097 42.6673 4.097C42.4326 4.097 42.2126 4.053 42.0073 3.965C41.8019 3.86967 41.6223 3.745 41.4683 3.591C41.3143 3.437 41.1896 3.25733 41.0943 3.052C41.0063 2.83933 40.9623 2.61567 40.9623 2.381C40.9623 2.139 41.0063 1.91533 41.0943 1.71C41.1896 1.49733 41.3143 1.314 41.4683 1.16C41.6223 0.998666 41.8019 0.874 42.0073 0.785999C42.2126 0.690666 42.4326 0.642999 42.6673 0.642999C42.9093 0.642999 43.1366 0.690666 43.3493 0.785999C43.5693 0.874 43.7563 0.998666 43.9103 1.16C44.0716 1.314 44.1999 1.49733 44.2953 1.71C44.3906 1.91533 44.4383 2.139 44.4383 2.381ZM49.2795 7.1C49.5068 6.87267 49.7452 6.66367 49.9945 6.473C50.2512 6.275 50.5188 6.11 50.7975 5.978C51.0835 5.83867 51.3878 5.73233 51.7105 5.659C52.0332 5.57833 52.3852 5.538 52.7665 5.538C53.3825 5.538 53.9288 5.64433 54.4055 5.857C54.8822 6.06233 55.2782 6.35567 55.5935 6.737C55.9162 7.111 56.1582 7.562 56.3195 8.09C56.4882 8.61067 56.5725 9.18633 56.5725 9.817V17H53.8555V9.817C53.8555 9.12767 53.6978 8.596 53.3825 8.222C53.0672 7.84067 52.5868 7.65 51.9415 7.65C51.4722 7.65 51.0322 7.75633 50.6215 7.969C50.2108 8.18167 49.8222 8.47133 49.4555 8.838V17H46.7385V5.714H48.3995C48.7515 5.714 48.9825 5.879 49.0925 6.209L49.2795 7.1ZM75.8581 13.249C76.0194 13.249 76.1624 13.3113 76.2871 13.436L77.4531 14.701C76.8077 15.5003 76.0121 16.1127 75.0661 16.538C74.1274 16.9633 72.9981 17.176 71.6781 17.176C70.4974 17.176 69.4341 16.9743 68.4881 16.571C67.5494 16.1677 66.7464 15.6067 66.0791 14.888C65.4117 14.1693 64.8984 13.3113 64.5391 12.314C64.1871 11.3167 64.0111 10.2277 64.0111 9.047C64.0111 7.85167 64.2017 6.759 64.5831 5.769C64.9644 4.77167 65.4997 3.91367 66.1891 3.195C66.8857 2.47633 67.7144 1.919 68.6751 1.523C69.6357 1.11967 70.6991 0.918 71.8651 0.918C73.0237 0.918 74.0504 1.10867 74.9451 1.49C75.8471 1.87133 76.6134 2.37 77.2441 2.986L76.2541 4.361C76.1954 4.449 76.1184 4.526 76.0231 4.592C75.9351 4.658 75.8104 4.691 75.6491 4.691C75.5391 4.691 75.4254 4.66167 75.3081 4.603C75.1907 4.537 75.0624 4.46 74.9231 4.372C74.7837 4.27667 74.6224 4.174 74.4391 4.064C74.2557 3.954 74.0431 3.855 73.8011 3.767C73.5591 3.67167 73.2767 3.59467 72.9541 3.536C72.6387 3.47 72.2721 3.437 71.8541 3.437C71.1427 3.437 70.4901 3.56533 69.8961 3.822C69.3094 4.07133 68.8034 4.438 68.3781 4.922C67.9527 5.39867 67.6227 5.98533 67.3881 6.682C67.1534 7.37133 67.0361 8.15967 67.0361 9.047C67.0361 9.94167 67.1607 10.7373 67.4101 11.434C67.6667 12.1307 68.0114 12.7173 68.4441 13.194C68.8767 13.6707 69.3864 14.0373 69.9731 14.294C70.5597 14.5433 71.1904 14.668 71.8651 14.668C72.2684 14.668 72.6314 14.646 72.9541 14.602C73.2841 14.558 73.5847 14.4883 73.8561 14.393C74.1347 14.2977 74.3951 14.1767 74.6371 14.03C74.8864 13.876 75.1321 13.689 75.3741 13.469C75.4474 13.403 75.5244 13.3517 75.6051 13.315C75.6857 13.271 75.7701 13.249 75.8581 13.249ZM81.768 6.924C82.208 6.51333 82.692 6.17967 83.22 5.923C83.748 5.66633 84.3677 5.538 85.079 5.538C85.695 5.538 86.2413 5.64433 86.718 5.857C87.1947 6.06233 87.5907 6.35567 87.906 6.737C88.2287 7.111 88.4707 7.562 88.632 8.09C88.8007 8.61067 88.885 9.18633 88.885 9.817V17H86.168V9.817C86.168 9.12767 86.0103 8.596 85.695 8.222C85.3797 7.84067 84.8993 7.65 84.254 7.65C83.7847 7.65 83.3447 7.75633 82.934 7.969C82.5233 8.18167 82.1347 8.47133 81.768 8.838V17H79.051V0.653999H81.768V6.924ZM94.285 5.714V17H91.557V5.714H94.285ZM94.659 2.425C94.659 2.65967 94.6113 2.87967 94.516 3.085C94.4206 3.29033 94.2923 3.47 94.131 3.624C93.977 3.778 93.7936 3.90267 93.581 3.998C93.3683 4.086 93.141 4.13 92.899 4.13C92.6643 4.13 92.4406 4.086 92.228 3.998C92.0226 3.90267 91.843 3.778 91.689 3.624C91.535 3.47 91.4103 3.29033 91.315 3.085C91.227 2.87967 91.183 2.65967 91.183 2.425C91.183 2.183 91.227 1.95567 91.315 1.743C91.4103 1.53033 91.535 1.347 91.689 1.193C91.843 1.039 92.0226 0.917999 92.228 0.83C92.4406 0.734666 92.6643 0.687 92.899 0.687C93.141 0.687 93.3683 0.734666 93.581 0.83C93.7936 0.917999 93.977 1.039 94.131 1.193C94.2923 1.347 94.4206 1.53033 94.516 1.743C94.6113 1.95567 94.659 2.183 94.659 2.425ZM104.326 10.059C104.326 9.707 104.275 9.377 104.172 9.069C104.077 8.75367 103.93 8.47867 103.732 8.244C103.534 8.00933 103.281 7.826 102.973 7.694C102.672 7.55467 102.32 7.485 101.917 7.485C101.132 7.485 100.513 7.70867 100.058 8.156C99.6106 8.60333 99.3246 9.23767 99.1999 10.059H104.326ZM99.1449 11.698C99.1889 12.2773 99.2916 12.7797 99.4529 13.205C99.6142 13.623 99.8269 13.9713 100.091 14.25C100.355 14.5213 100.667 14.7267 101.026 14.866C101.393 14.998 101.796 15.064 102.236 15.064C102.676 15.064 103.054 15.0127 103.369 14.91C103.692 14.8073 103.97 14.6937 104.205 14.569C104.447 14.4443 104.656 14.3307 104.832 14.228C105.015 14.1253 105.191 14.074 105.36 14.074C105.587 14.074 105.756 14.1583 105.866 14.327L106.647 15.317C106.346 15.669 106.009 15.966 105.635 16.208C105.261 16.4427 104.869 16.6333 104.458 16.78C104.055 16.9193 103.64 17.0183 103.215 17.077C102.797 17.1357 102.39 17.165 101.994 17.165C101.209 17.165 100.48 17.0367 99.8049 16.78C99.1302 16.516 98.5436 16.131 98.0449 15.625C97.5462 15.1117 97.1539 14.481 96.8679 13.733C96.5819 12.9777 96.4389 12.105 96.4389 11.115C96.4389 10.345 96.5636 9.62267 96.8129 8.948C97.0622 8.266 97.4179 7.67567 97.8799 7.177C98.3492 6.671 98.9176 6.27133 99.5849 5.978C100.26 5.68467 101.019 5.538 101.862 5.538C102.573 5.538 103.23 5.65167 103.831 5.879C104.432 6.10633 104.949 6.44 105.382 6.88C105.815 7.31267 106.152 7.848 106.394 8.486C106.643 9.11667 106.768 9.839 106.768 10.653C106.768 11.0637 106.724 11.3423 106.636 11.489C106.548 11.6283 106.379 11.698 106.13 11.698H99.1449ZM111.348 7.1C111.575 6.87267 111.814 6.66367 112.063 6.473C112.32 6.275 112.587 6.11 112.866 5.978C113.152 5.83867 113.456 5.73233 113.779 5.659C114.102 5.57833 114.454 5.538 114.835 5.538C115.451 5.538 115.997 5.64433 116.474 5.857C116.951 6.06233 117.347 6.35567 117.662 6.737C117.985 7.111 118.227 7.562 118.388 8.09C118.557 8.61067 118.641 9.18633 118.641 9.817V17H115.924V9.817C115.924 9.12767 115.766 8.596 115.451 8.222C115.136 7.84067 114.655 7.65 114.01 7.65C113.541 7.65 113.101 7.75633 112.69 7.969C112.279 8.18167 111.891 8.47133 111.524 8.838V17H108.807V5.714H110.468C110.82 5.714 111.051 5.879 111.161 6.209L111.348 7.1Z"
    fill="#000" />
</svg>