<svg viewBox="0 0 89 20" fill="none" xmlns="http://www.w3.org/2000/svg">
  <path
    d="M2.56 16.28C2.76 16.4533 3.00667 16.6 3.3 16.72C3.59333 16.8533 3.88667 16.92 4.18 16.92C4.48667 16.92 4.78 16.8 5.06 16.56C5.34 16.32 5.48 15.9067 5.48 15.32V0.999999H9.12V16.08C9.12 16.7467 9 17.3133 8.76 17.78C8.52 18.26 8.18667 18.64 7.76 18.92C7.33333 19.2133 6.84 19.4267 6.28 19.56C5.72 19.7067 5.13333 19.78 4.52 19.78C4 19.78 3.5 19.72 3.02 19.6C2.54 19.48 2.10667 19.3333 1.72 19.16C1.33333 19 1 18.8267 0.72 18.64L2.56 16.28ZM15.1416 11.4C15.1416 11.9333 15.2416 12.3533 15.4416 12.66C15.6416 12.9533 15.9882 13.1 16.4816 13.1C16.8149 13.1 17.0949 13.0333 17.3216 12.9C17.5616 12.7667 17.7482 12.5733 17.8816 12.32C18.0149 12.0667 18.0816 11.76 18.0816 11.4V5.8H21.1016V15H18.0816V13.62C17.8016 14.1133 17.4349 14.5067 16.9816 14.8C16.5282 15.08 15.9616 15.22 15.2816 15.22C14.1349 15.22 13.2949 14.9133 12.7616 14.3C12.2416 13.6733 11.9816 12.8133 11.9816 11.72V5.8H15.1416V11.4ZM24.1855 11.66C24.6521 12.0467 25.0721 12.3533 25.4455 12.58C25.8321 12.7933 26.1721 12.9467 26.4655 13.04C26.7588 13.12 27.0121 13.16 27.2255 13.16C27.5321 13.16 27.7588 13.0933 27.9055 12.96C28.0521 12.8267 28.1255 12.6533 28.1255 12.44C28.1255 12.24 28.0655 12.0733 27.9455 11.94C27.8255 11.7933 27.6188 11.6533 27.3255 11.52C27.0455 11.3867 26.6588 11.2467 26.1655 11.1C25.7255 10.94 25.3055 10.7533 24.9055 10.54C24.5188 10.3133 24.1988 10.0133 23.9455 9.64C23.6921 9.26667 23.5655 8.78667 23.5655 8.2C23.5655 7.64 23.7121 7.16667 24.0055 6.78C24.3121 6.39333 24.7188 6.1 25.2255 5.9C25.7455 5.7 26.3388 5.6 27.0055 5.6C27.5388 5.6 28.0321 5.66 28.4855 5.78C28.9521 5.9 29.3855 6.06 29.7855 6.26C30.1988 6.46 30.5855 6.69333 30.9455 6.96L29.8655 8.92C29.4788 8.56 29.0388 8.26667 28.5455 8.04C28.0521 7.8 27.5988 7.68 27.1855 7.68C26.9055 7.68 26.6921 7.73333 26.5455 7.84C26.4121 7.94667 26.3455 8.08667 26.3455 8.26C26.3455 8.46 26.4255 8.62667 26.5855 8.76C26.7588 8.89333 26.9988 9.02 27.3055 9.14C27.6255 9.24667 28.0121 9.38667 28.4655 9.56C28.9455 9.73333 29.3855 9.93333 29.7855 10.16C30.1988 10.3867 30.5255 10.6733 30.7655 11.02C31.0188 11.3667 31.1455 11.8267 31.1455 12.4C31.1455 13.3867 30.8388 14.1333 30.2255 14.64C29.6255 15.1333 28.7788 15.38 27.6855 15.38C27.0188 15.38 26.3988 15.3 25.8255 15.14C25.2655 14.9933 24.7455 14.7933 24.2655 14.54C23.7855 14.2733 23.3388 13.98 22.9255 13.66L24.1855 11.66ZM31.9266 5.8H38.0866V8.3H31.9266V5.8ZM33.5466 2.6H36.4466V15H33.5466V2.6ZM39.3937 2.34C39.3937 1.86 39.5671 1.47333 39.9137 1.18C40.2604 0.873332 40.6737 0.719999 41.1537 0.719999C41.6471 0.719999 42.0604 0.873332 42.3937 1.18C42.7404 1.47333 42.9137 1.86 42.9137 2.34C42.9137 2.82 42.7404 3.21333 42.3937 3.52C42.0604 3.82667 41.6471 3.98 41.1537 3.98C40.6737 3.98 40.2604 3.82667 39.9137 3.52C39.5671 3.21333 39.3937 2.82 39.3937 2.34ZM39.6937 5.8H42.6137V15H39.6937V5.8ZM51.2811 9.4C51.2811 8.85333 51.1744 8.43333 50.9611 8.14C50.7611 7.84667 50.4211 7.7 49.9411 7.7C49.6211 7.7 49.3411 7.76667 49.1011 7.9C48.8611 8.03333 48.6744 8.22667 48.5411 8.48C48.4078 8.73333 48.3411 9.04 48.3411 9.4V15H45.3011V5.8H48.3411V7.18C48.6078 6.67333 48.9678 6.28 49.4211 6C49.8878 5.72 50.4611 5.58 51.1411 5.58C52.2878 5.58 53.1211 5.88667 53.6411 6.5C54.1611 7.11333 54.4211 7.97333 54.4211 9.08V15H51.2811V9.4ZM66.3811 8C66.3811 8.85333 66.5744 9.59333 66.9611 10.22C67.3478 10.8333 67.8544 11.3 68.4811 11.62C69.1211 11.94 69.8211 12.1 70.5811 12.1C71.2478 12.1 71.8344 12.0133 72.3411 11.84C72.8478 11.6667 73.3011 11.44 73.7011 11.16C74.1011 10.88 74.4544 10.58 74.7611 10.26V13.9C74.2011 14.34 73.5878 14.6867 72.9211 14.94C72.2544 15.1933 71.4078 15.32 70.3811 15.32C69.2611 15.32 68.2278 15.1467 67.2811 14.8C66.3344 14.4533 65.5211 13.9533 64.8411 13.3C64.1611 12.6467 63.6344 11.8733 63.2611 10.98C62.8878 10.0867 62.7011 9.09333 62.7011 8C62.7011 6.90667 62.8878 5.91333 63.2611 5.02C63.6344 4.12667 64.1611 3.35333 64.8411 2.7C65.5211 2.04667 66.3344 1.54667 67.2811 1.2C68.2278 0.853333 69.2611 0.68 70.3811 0.68C71.4078 0.68 72.2544 0.806666 72.9211 1.06C73.5878 1.31333 74.2011 1.66 74.7611 2.1V5.74C74.4544 5.42 74.1011 5.12 73.7011 4.84C73.3011 4.54667 72.8478 4.32 72.3411 4.16C71.8344 3.98667 71.2478 3.9 70.5811 3.9C69.8211 3.9 69.1211 4.06 68.4811 4.38C67.8544 4.7 67.3478 5.16667 66.9611 5.78C66.5744 6.39333 66.3811 7.13333 66.3811 8ZM84.9791 0.999999H88.8591L83.9591 9.3V15H80.5191V9.32L75.6191 0.999999H79.4991L82.2391 6.26L84.9791 0.999999Z"
    fill="#000" />
</svg>