<svg viewBox="0 0 24 24" fill="none" xmlns="http://www.w3.org/2000/svg">
  <path
    d="M19.0001 10.5L18.999 9.5V9.5C18.999 8.41847 18.999 7.87771 18.8863 7.41297C18.5919 6.19917 17.7473 5.19258 16.6032 4.69168C16.1651 4.4999 15.6326 4.40592 14.5675 4.21797L6.50089 2.79445C4.98642 2.52719 4.22919 2.39356 3.68376 2.62504C3.20654 2.82758 2.8266 3.20751 2.62407 3.68474C2.39258 4.23017 2.52621 4.9874 2.79347 6.50187L4.06589 13.7122C4.39767 15.5923 4.56355 16.5323 5.03901 17.2371C5.45818 17.8584 6.04346 18.3494 6.72815 18.6542C7.50481 19 8.45937 19 10.3685 19H11.3481C12.3264 19 12.8156 19 13.276 18.8895C13.6841 18.7915 14.0743 18.6299 14.4322 18.4106C14.8358 18.1632 15.1817 17.8173 15.8735 17.1255L19.499 13.5C20.0513 12.9477 20.9467 12.9477 21.499 13.5V13.5C22.0513 14.0523 22.0513 14.9477 21.499 15.5L15.999 21M3.49951 3.5L7.49997 7.50046M13 11C13 12.1046 12.1046 13 11 13C9.89543 13 9 12.1046 9 11C9 9.89543 9.89543 9 11 9C12.1046 9 13 9.89543 13 11Z"
    stroke="#000" stroke-width="1.5" stroke-linecap="round" stroke-linejoin="round" />
</svg>