<svg viewBox="0 0 24 24" fill="none" xmlns="http://www.w3.org/2000/svg">
  <path
    d="M16.67 2.25C13.7029 2.25 11.2721 4.61002 11.2721 7.55422C11.2721 7.62338 11.2736 7.69247 11.2766 7.7615C8.00936 7.34208 5.10976 5.69957 3.12289 3.3409C2.96761 3.15657 2.7332 3.05809 2.49286 3.07622C2.25252 3.09435 2.03554 3.22689 1.90967 3.43244C0.927355 5.03663 0.97664 7.00898 1.82032 8.58535C1.43999 8.61839 1.1353 8.94804 1.1353 9.33253C1.1353 10.9216 1.85114 12.3874 3.01053 13.3826C2.80405 13.576 2.72158 13.8826 2.80796 14.156C3.28249 15.6582 4.41851 16.8469 5.86664 17.4381C4.39259 18.1382 2.73498 18.4183 1.09116 18.217C0.743559 18.1744 0.412761 18.3781 0.294242 18.7076C0.175722 19.0372 0.301034 19.4049 0.59613 19.5934C2.75448 20.9727 5.32952 21.75 8.12675 21.75C17.1536 21.75 22.1077 14.4448 22.1077 8.0747V7.59031L22.1269 7.57245C22.3186 7.39301 22.5637 7.12628 22.8053 6.7591C23.2931 6.01801 23.75 4.89264 23.75 3.30361C23.75 3.03461 23.6059 2.78621 23.3724 2.65262C23.1389 2.51904 22.8518 2.52074 22.6199 2.65707C21.9156 3.07112 21.1148 3.39793 20.301 3.60844C19.3141 2.73976 18.0501 2.25 16.67 2.25Z"
    fill="#000" />
</svg>